<mxfile host="app.diagrams.net" modified="2023-10-04T11:52:48.592Z" agent="Mozilla/5.0 (Windows NT 10.0; Win64; x64; rv:109.0) Gecko/20100101 Firefox/118.0" etag="rB-WY7iQEXeYjvBIMtut" version="22.0.0" type="device">
  <diagram name="Pagina-1" id="IcjLR0G3Itd0aWnBn49A">
    <mxGraphModel dx="819" dy="426" grid="1" gridSize="10" guides="1" tooltips="1" connect="1" arrows="1" fold="1" page="1" pageScale="1" pageWidth="827" pageHeight="1169" math="0" shadow="0">
      <root>
        <mxCell id="0" />
        <mxCell id="1" parent="0" />
        <mxCell id="kcsDUwO9FnMU6XCRbURZ-1" value="1" style="ellipse;whiteSpace=wrap;html=1;aspect=fixed;direction=north;fontSize=24;fontFamily=Times New Roman;" vertex="1" parent="1">
          <mxGeometry x="240" y="200" width="40" height="40" as="geometry" />
        </mxCell>
        <mxCell id="kcsDUwO9FnMU6XCRbURZ-2" value="" style="ellipse;whiteSpace=wrap;html=1;aspect=fixed;direction=north;fontSize=24;fontFamily=Times New Roman;" vertex="1" parent="1">
          <mxGeometry x="320" y="160" width="40" height="40" as="geometry" />
        </mxCell>
        <mxCell id="kcsDUwO9FnMU6XCRbURZ-3" value="2" style="ellipse;whiteSpace=wrap;html=1;aspect=fixed;direction=north;fontSize=24;fontFamily=Times New Roman;" vertex="1" parent="1">
          <mxGeometry x="320" y="240" width="40" height="40" as="geometry" />
        </mxCell>
        <mxCell id="kcsDUwO9FnMU6XCRbURZ-4" value="" style="endArrow=none;html=1;rounded=0;entryX=0.5;entryY=0;entryDx=0;entryDy=0;exitX=0.5;exitY=1;exitDx=0;exitDy=0;fontSize=18;fontFamily=Times New Roman;" edge="1" parent="1" source="kcsDUwO9FnMU6XCRbURZ-1" target="kcsDUwO9FnMU6XCRbURZ-3">
          <mxGeometry width="50" height="50" relative="1" as="geometry">
            <mxPoint x="430" y="250" as="sourcePoint" />
            <mxPoint x="380" y="300" as="targetPoint" />
          </mxGeometry>
        </mxCell>
        <mxCell id="kcsDUwO9FnMU6XCRbURZ-5" value="" style="endArrow=none;html=1;rounded=0;entryX=0.5;entryY=0;entryDx=0;entryDy=0;exitX=0.5;exitY=1;exitDx=0;exitDy=0;fontSize=18;fontFamily=Times New Roman;" edge="1" parent="1" source="kcsDUwO9FnMU6XCRbURZ-1" target="kcsDUwO9FnMU6XCRbURZ-2">
          <mxGeometry width="50" height="50" relative="1" as="geometry">
            <mxPoint x="430" y="250" as="sourcePoint" />
            <mxPoint x="380" y="300" as="targetPoint" />
          </mxGeometry>
        </mxCell>
        <mxCell id="kcsDUwO9FnMU6XCRbURZ-6" value="" style="ellipse;whiteSpace=wrap;html=1;aspect=fixed;direction=north;fontSize=24;fontFamily=Times New Roman;" vertex="1" parent="1">
          <mxGeometry x="380" y="160" width="40" height="40" as="geometry" />
        </mxCell>
        <mxCell id="kcsDUwO9FnMU6XCRbURZ-8" value="" style="endArrow=none;html=1;rounded=0;entryX=0.5;entryY=0;entryDx=0;entryDy=0;exitX=0.5;exitY=1;exitDx=0;exitDy=0;fontSize=24;fontFamily=Times New Roman;" edge="1" parent="1" source="kcsDUwO9FnMU6XCRbURZ-2" target="kcsDUwO9FnMU6XCRbURZ-6">
          <mxGeometry width="50" height="50" relative="1" as="geometry">
            <mxPoint x="430" y="250" as="sourcePoint" />
            <mxPoint x="380" y="300" as="targetPoint" />
          </mxGeometry>
        </mxCell>
        <mxCell id="kcsDUwO9FnMU6XCRbURZ-9" value="" style="ellipse;whiteSpace=wrap;html=1;aspect=fixed;direction=north;fontSize=24;fontFamily=Times New Roman;" vertex="1" parent="1">
          <mxGeometry x="440" y="160" width="40" height="40" as="geometry" />
        </mxCell>
        <mxCell id="kcsDUwO9FnMU6XCRbURZ-11" value="" style="endArrow=none;html=1;rounded=0;entryX=0.5;entryY=0;entryDx=0;entryDy=0;exitX=0.5;exitY=1;exitDx=0;exitDy=0;fontSize=24;fontFamily=Times New Roman;" edge="1" parent="1" source="kcsDUwO9FnMU6XCRbURZ-6" target="kcsDUwO9FnMU6XCRbURZ-9">
          <mxGeometry width="50" height="50" relative="1" as="geometry">
            <mxPoint x="430" y="390" as="sourcePoint" />
            <mxPoint x="380" y="440" as="targetPoint" />
          </mxGeometry>
        </mxCell>
        <mxCell id="kcsDUwO9FnMU6XCRbURZ-12" value="3" style="ellipse;whiteSpace=wrap;html=1;aspect=fixed;direction=north;fontSize=24;fontFamily=Times New Roman;" vertex="1" parent="1">
          <mxGeometry x="380" y="240" width="40" height="40" as="geometry" />
        </mxCell>
        <mxCell id="kcsDUwO9FnMU6XCRbURZ-13" value="4" style="ellipse;whiteSpace=wrap;html=1;aspect=fixed;direction=north;fontSize=24;fontFamily=Times New Roman;" vertex="1" parent="1">
          <mxGeometry x="440" y="240" width="40" height="40" as="geometry" />
        </mxCell>
        <mxCell id="kcsDUwO9FnMU6XCRbURZ-14" value="" style="endArrow=none;html=1;rounded=0;entryX=0.5;entryY=0;entryDx=0;entryDy=0;exitX=0.5;exitY=1;exitDx=0;exitDy=0;fontSize=24;fontFamily=Times New Roman;" edge="1" parent="1" source="kcsDUwO9FnMU6XCRbURZ-12" target="kcsDUwO9FnMU6XCRbURZ-13">
          <mxGeometry width="50" height="50" relative="1" as="geometry">
            <mxPoint x="270" y="310" as="sourcePoint" />
            <mxPoint x="220" y="360" as="targetPoint" />
          </mxGeometry>
        </mxCell>
        <mxCell id="kcsDUwO9FnMU6XCRbURZ-15" value="5" style="ellipse;whiteSpace=wrap;html=1;aspect=fixed;direction=north;fontSize=24;fontFamily=Times New Roman;" vertex="1" parent="1">
          <mxGeometry x="500" y="240" width="40" height="40" as="geometry" />
        </mxCell>
        <mxCell id="kcsDUwO9FnMU6XCRbURZ-16" value="6" style="ellipse;whiteSpace=wrap;html=1;aspect=fixed;direction=north;fontSize=24;fontFamily=Times New Roman;" vertex="1" parent="1">
          <mxGeometry x="560" y="240" width="40" height="40" as="geometry" />
        </mxCell>
        <mxCell id="kcsDUwO9FnMU6XCRbURZ-17" value="" style="endArrow=none;html=1;rounded=0;entryX=0.5;entryY=0;entryDx=0;entryDy=0;exitX=0.5;exitY=1;exitDx=0;exitDy=0;fontSize=24;fontFamily=Times New Roman;" edge="1" parent="1" source="kcsDUwO9FnMU6XCRbURZ-15" target="kcsDUwO9FnMU6XCRbURZ-16">
          <mxGeometry width="50" height="50" relative="1" as="geometry">
            <mxPoint x="270" y="430" as="sourcePoint" />
            <mxPoint x="220" y="480" as="targetPoint" />
          </mxGeometry>
        </mxCell>
        <mxCell id="kcsDUwO9FnMU6XCRbURZ-18" value="7" style="ellipse;whiteSpace=wrap;html=1;aspect=fixed;direction=north;fontSize=24;fontFamily=Times New Roman;" vertex="1" parent="1">
          <mxGeometry x="620" y="240" width="40" height="40" as="geometry" />
        </mxCell>
        <mxCell id="kcsDUwO9FnMU6XCRbURZ-20" value="" style="endArrow=none;html=1;rounded=0;entryX=0.5;entryY=0;entryDx=0;entryDy=0;exitX=0.5;exitY=1;exitDx=0;exitDy=0;fontSize=24;fontFamily=Times New Roman;" edge="1" parent="1" source="kcsDUwO9FnMU6XCRbURZ-3" target="kcsDUwO9FnMU6XCRbURZ-12">
          <mxGeometry width="50" height="50" relative="1" as="geometry">
            <mxPoint x="460" y="440" as="sourcePoint" />
            <mxPoint x="410" y="490" as="targetPoint" />
          </mxGeometry>
        </mxCell>
        <mxCell id="kcsDUwO9FnMU6XCRbURZ-21" value="" style="endArrow=none;html=1;rounded=0;entryX=0.5;entryY=0;entryDx=0;entryDy=0;exitX=0.5;exitY=1;exitDx=0;exitDy=0;fontSize=24;fontFamily=Times New Roman;" edge="1" parent="1" source="kcsDUwO9FnMU6XCRbURZ-13" target="kcsDUwO9FnMU6XCRbURZ-15">
          <mxGeometry width="50" height="50" relative="1" as="geometry">
            <mxPoint x="460" y="400" as="sourcePoint" />
            <mxPoint x="410" y="450" as="targetPoint" />
          </mxGeometry>
        </mxCell>
        <mxCell id="kcsDUwO9FnMU6XCRbURZ-24" value="" style="endArrow=none;html=1;rounded=0;exitX=0.5;exitY=0;exitDx=0;exitDy=0;entryX=0.5;entryY=1;entryDx=0;entryDy=0;fontSize=24;fontFamily=Times New Roman;" edge="1" parent="1" source="kcsDUwO9FnMU6XCRbURZ-18" target="kcsDUwO9FnMU6XCRbURZ-16">
          <mxGeometry width="50" height="50" relative="1" as="geometry">
            <mxPoint x="460" y="360" as="sourcePoint" />
            <mxPoint x="410" y="410" as="targetPoint" />
          </mxGeometry>
        </mxCell>
        <mxCell id="kcsDUwO9FnMU6XCRbURZ-25" value="&lt;font style=&quot;font-size: 18px;&quot;&gt;&lt;i style=&quot;font-size: 18px;&quot;&gt;f&lt;/i&gt; = 3&lt;/font&gt;" style="text;html=1;strokeColor=none;fillColor=none;align=center;verticalAlign=middle;whiteSpace=wrap;rounded=0;fontSize=18;fontFamily=Times New Roman;" vertex="1" parent="1">
          <mxGeometry x="230" y="240" width="60" height="30" as="geometry" />
        </mxCell>
        <mxCell id="kcsDUwO9FnMU6XCRbURZ-26" value="&lt;font style=&quot;font-size: 18px;&quot;&gt;&lt;i style=&quot;font-size: 18px;&quot;&gt;f&lt;/i&gt; = 4&lt;/font&gt;" style="text;html=1;strokeColor=none;fillColor=none;align=center;verticalAlign=middle;whiteSpace=wrap;rounded=0;fontSize=18;fontFamily=Times New Roman;" vertex="1" parent="1">
          <mxGeometry x="310" y="130" width="60" height="30" as="geometry" />
        </mxCell>
        <mxCell id="kcsDUwO9FnMU6XCRbURZ-28" value="&lt;font style=&quot;font-size: 18px;&quot;&gt;&lt;i style=&quot;font-size: 18px;&quot;&gt;f&lt;/i&gt; = 1&lt;/font&gt;" style="text;html=1;strokeColor=none;fillColor=none;align=center;verticalAlign=middle;whiteSpace=wrap;rounded=0;fontSize=18;fontFamily=Times New Roman;" vertex="1" parent="1">
          <mxGeometry x="370" y="130" width="60" height="30" as="geometry" />
        </mxCell>
        <mxCell id="kcsDUwO9FnMU6XCRbURZ-30" value="&lt;font style=&quot;font-size: 18px;&quot;&gt;&lt;i style=&quot;font-size: 18px;&quot;&gt;f&lt;/i&gt; = 2&lt;/font&gt;" style="text;html=1;strokeColor=none;fillColor=none;align=center;verticalAlign=middle;whiteSpace=wrap;rounded=0;fontSize=18;fontFamily=Times New Roman;" vertex="1" parent="1">
          <mxGeometry x="310" y="280" width="60" height="30" as="geometry" />
        </mxCell>
        <mxCell id="kcsDUwO9FnMU6XCRbURZ-31" value="&lt;font style=&quot;font-size: 18px;&quot;&gt;&lt;i style=&quot;font-size: 18px;&quot;&gt;f&lt;/i&gt; = 1&lt;/font&gt;" style="text;html=1;strokeColor=none;fillColor=none;align=center;verticalAlign=middle;whiteSpace=wrap;rounded=0;fontSize=18;fontFamily=Times New Roman;" vertex="1" parent="1">
          <mxGeometry x="370" y="280" width="60" height="30" as="geometry" />
        </mxCell>
        <mxCell id="kcsDUwO9FnMU6XCRbURZ-32" value="&lt;font style=&quot;font-size: 18px;&quot;&gt;&lt;i style=&quot;font-size: 18px;&quot;&gt;f&lt;/i&gt; = 1&lt;/font&gt;" style="text;html=1;strokeColor=none;fillColor=none;align=center;verticalAlign=middle;whiteSpace=wrap;rounded=0;fontSize=18;fontFamily=Times New Roman;" vertex="1" parent="1">
          <mxGeometry x="430" y="280" width="60" height="30" as="geometry" />
        </mxCell>
        <mxCell id="kcsDUwO9FnMU6XCRbURZ-33" value="&lt;font style=&quot;font-size: 18px;&quot;&gt;&lt;i style=&quot;font-size: 18px;&quot;&gt;f&lt;/i&gt; = 1&lt;/font&gt;" style="text;html=1;strokeColor=none;fillColor=none;align=center;verticalAlign=middle;whiteSpace=wrap;rounded=0;fontSize=18;fontFamily=Times New Roman;" vertex="1" parent="1">
          <mxGeometry x="490" y="280" width="60" height="30" as="geometry" />
        </mxCell>
        <mxCell id="kcsDUwO9FnMU6XCRbURZ-34" value="&lt;font style=&quot;font-size: 18px;&quot;&gt;&lt;i style=&quot;font-size: 18px;&quot;&gt;f&lt;/i&gt; = 1&lt;/font&gt;" style="text;html=1;strokeColor=none;fillColor=none;align=center;verticalAlign=middle;whiteSpace=wrap;rounded=0;fontSize=18;fontFamily=Times New Roman;" vertex="1" parent="1">
          <mxGeometry x="550" y="280" width="60" height="30" as="geometry" />
        </mxCell>
        <mxCell id="kcsDUwO9FnMU6XCRbURZ-35" value="&lt;font style=&quot;font-size: 18px;&quot;&gt;Goal&lt;/font&gt;" style="text;html=1;strokeColor=none;fillColor=none;align=center;verticalAlign=middle;whiteSpace=wrap;rounded=0;fontSize=18;fontFamily=Times New Roman;" vertex="1" parent="1">
          <mxGeometry x="660" y="245" width="60" height="30" as="geometry" />
        </mxCell>
        <mxCell id="kcsDUwO9FnMU6XCRbURZ-37" value="&lt;div style=&quot;font-size: 18px;&quot;&gt;&lt;font style=&quot;font-size: 18px;&quot;&gt;Goal&lt;/font&gt;&lt;/div&gt;" style="text;html=1;strokeColor=none;fillColor=none;align=center;verticalAlign=middle;whiteSpace=wrap;rounded=0;fontSize=18;fontFamily=Times New Roman;" vertex="1" parent="1">
          <mxGeometry x="480" y="165" width="60" height="30" as="geometry" />
        </mxCell>
        <mxCell id="kcsDUwO9FnMU6XCRbURZ-40" value="1" style="ellipse;whiteSpace=wrap;html=1;aspect=fixed;direction=north;fontSize=24;fontFamily=Times New Roman;" vertex="1" parent="1">
          <mxGeometry x="240" y="460" width="40" height="40" as="geometry" />
        </mxCell>
        <mxCell id="kcsDUwO9FnMU6XCRbURZ-41" value="6" style="ellipse;whiteSpace=wrap;html=1;aspect=fixed;direction=north;fontSize=24;fontFamily=Times New Roman;" vertex="1" parent="1">
          <mxGeometry x="320" y="420" width="40" height="40" as="geometry" />
        </mxCell>
        <mxCell id="kcsDUwO9FnMU6XCRbURZ-42" value="2" style="ellipse;whiteSpace=wrap;html=1;aspect=fixed;direction=north;fontSize=24;fontFamily=Times New Roman;" vertex="1" parent="1">
          <mxGeometry x="320" y="500" width="40" height="40" as="geometry" />
        </mxCell>
        <mxCell id="kcsDUwO9FnMU6XCRbURZ-43" value="" style="endArrow=none;html=1;rounded=0;entryX=0.5;entryY=0;entryDx=0;entryDy=0;exitX=0.5;exitY=1;exitDx=0;exitDy=0;fontSize=18;fontFamily=Times New Roman;" edge="1" parent="1" source="kcsDUwO9FnMU6XCRbURZ-40" target="kcsDUwO9FnMU6XCRbURZ-42">
          <mxGeometry width="50" height="50" relative="1" as="geometry">
            <mxPoint x="430" y="510" as="sourcePoint" />
            <mxPoint x="380" y="560" as="targetPoint" />
          </mxGeometry>
        </mxCell>
        <mxCell id="kcsDUwO9FnMU6XCRbURZ-44" value="" style="endArrow=none;html=1;rounded=0;entryX=0.5;entryY=0;entryDx=0;entryDy=0;exitX=0.5;exitY=1;exitDx=0;exitDy=0;fontSize=18;fontFamily=Times New Roman;" edge="1" parent="1" source="kcsDUwO9FnMU6XCRbURZ-40" target="kcsDUwO9FnMU6XCRbURZ-41">
          <mxGeometry width="50" height="50" relative="1" as="geometry">
            <mxPoint x="430" y="510" as="sourcePoint" />
            <mxPoint x="380" y="560" as="targetPoint" />
          </mxGeometry>
        </mxCell>
        <mxCell id="kcsDUwO9FnMU6XCRbURZ-45" value="7" style="ellipse;whiteSpace=wrap;html=1;aspect=fixed;direction=north;fontSize=24;fontFamily=Times New Roman;" vertex="1" parent="1">
          <mxGeometry x="380" y="420" width="40" height="40" as="geometry" />
        </mxCell>
        <mxCell id="kcsDUwO9FnMU6XCRbURZ-46" value="" style="endArrow=none;html=1;rounded=0;entryX=0.5;entryY=0;entryDx=0;entryDy=0;exitX=0.5;exitY=1;exitDx=0;exitDy=0;fontSize=24;fontFamily=Times New Roman;" edge="1" parent="1" source="kcsDUwO9FnMU6XCRbURZ-41" target="kcsDUwO9FnMU6XCRbURZ-45">
          <mxGeometry width="50" height="50" relative="1" as="geometry">
            <mxPoint x="430" y="510" as="sourcePoint" />
            <mxPoint x="380" y="560" as="targetPoint" />
          </mxGeometry>
        </mxCell>
        <mxCell id="kcsDUwO9FnMU6XCRbURZ-47" value="8" style="ellipse;whiteSpace=wrap;html=1;aspect=fixed;direction=north;fontSize=24;fontFamily=Times New Roman;" vertex="1" parent="1">
          <mxGeometry x="440" y="420" width="40" height="40" as="geometry" />
        </mxCell>
        <mxCell id="kcsDUwO9FnMU6XCRbURZ-48" value="" style="endArrow=none;html=1;rounded=0;entryX=0.5;entryY=0;entryDx=0;entryDy=0;exitX=0.5;exitY=1;exitDx=0;exitDy=0;fontSize=24;fontFamily=Times New Roman;" edge="1" parent="1" source="kcsDUwO9FnMU6XCRbURZ-45" target="kcsDUwO9FnMU6XCRbURZ-47">
          <mxGeometry width="50" height="50" relative="1" as="geometry">
            <mxPoint x="430" y="650" as="sourcePoint" />
            <mxPoint x="380" y="700" as="targetPoint" />
          </mxGeometry>
        </mxCell>
        <mxCell id="kcsDUwO9FnMU6XCRbURZ-49" value="3" style="ellipse;whiteSpace=wrap;html=1;aspect=fixed;direction=north;fontSize=24;fontFamily=Times New Roman;" vertex="1" parent="1">
          <mxGeometry x="380" y="500" width="40" height="40" as="geometry" />
        </mxCell>
        <mxCell id="kcsDUwO9FnMU6XCRbURZ-50" value="4" style="ellipse;whiteSpace=wrap;html=1;aspect=fixed;direction=north;fontSize=24;fontFamily=Times New Roman;" vertex="1" parent="1">
          <mxGeometry x="440" y="500" width="40" height="40" as="geometry" />
        </mxCell>
        <mxCell id="kcsDUwO9FnMU6XCRbURZ-51" value="" style="endArrow=none;html=1;rounded=0;entryX=0.5;entryY=0;entryDx=0;entryDy=0;exitX=0.5;exitY=1;exitDx=0;exitDy=0;fontSize=24;fontFamily=Times New Roman;" edge="1" parent="1" source="kcsDUwO9FnMU6XCRbURZ-49" target="kcsDUwO9FnMU6XCRbURZ-50">
          <mxGeometry width="50" height="50" relative="1" as="geometry">
            <mxPoint x="270" y="570" as="sourcePoint" />
            <mxPoint x="220" y="620" as="targetPoint" />
          </mxGeometry>
        </mxCell>
        <mxCell id="kcsDUwO9FnMU6XCRbURZ-52" value="5" style="ellipse;whiteSpace=wrap;html=1;aspect=fixed;direction=north;fontSize=24;fontFamily=Times New Roman;" vertex="1" parent="1">
          <mxGeometry x="500" y="500" width="40" height="40" as="geometry" />
        </mxCell>
        <mxCell id="kcsDUwO9FnMU6XCRbURZ-53" value="" style="ellipse;whiteSpace=wrap;html=1;aspect=fixed;direction=north;fontSize=24;fontFamily=Times New Roman;" vertex="1" parent="1">
          <mxGeometry x="560" y="500" width="40" height="40" as="geometry" />
        </mxCell>
        <mxCell id="kcsDUwO9FnMU6XCRbURZ-54" value="" style="endArrow=none;html=1;rounded=0;entryX=0.5;entryY=0;entryDx=0;entryDy=0;exitX=0.5;exitY=1;exitDx=0;exitDy=0;fontSize=24;fontFamily=Times New Roman;" edge="1" parent="1" source="kcsDUwO9FnMU6XCRbURZ-52" target="kcsDUwO9FnMU6XCRbURZ-53">
          <mxGeometry width="50" height="50" relative="1" as="geometry">
            <mxPoint x="270" y="690" as="sourcePoint" />
            <mxPoint x="220" y="740" as="targetPoint" />
          </mxGeometry>
        </mxCell>
        <mxCell id="kcsDUwO9FnMU6XCRbURZ-55" value="" style="ellipse;whiteSpace=wrap;html=1;aspect=fixed;direction=north;fontSize=24;fontFamily=Times New Roman;" vertex="1" parent="1">
          <mxGeometry x="620" y="500" width="40" height="40" as="geometry" />
        </mxCell>
        <mxCell id="kcsDUwO9FnMU6XCRbURZ-56" value="" style="endArrow=none;html=1;rounded=0;entryX=0.5;entryY=0;entryDx=0;entryDy=0;exitX=0.5;exitY=1;exitDx=0;exitDy=0;fontSize=24;fontFamily=Times New Roman;" edge="1" parent="1" source="kcsDUwO9FnMU6XCRbURZ-42" target="kcsDUwO9FnMU6XCRbURZ-49">
          <mxGeometry width="50" height="50" relative="1" as="geometry">
            <mxPoint x="460" y="700" as="sourcePoint" />
            <mxPoint x="410" y="750" as="targetPoint" />
          </mxGeometry>
        </mxCell>
        <mxCell id="kcsDUwO9FnMU6XCRbURZ-57" value="" style="endArrow=none;html=1;rounded=0;entryX=0.5;entryY=0;entryDx=0;entryDy=0;exitX=0.5;exitY=1;exitDx=0;exitDy=0;fontSize=24;fontFamily=Times New Roman;" edge="1" parent="1" source="kcsDUwO9FnMU6XCRbURZ-50" target="kcsDUwO9FnMU6XCRbURZ-52">
          <mxGeometry width="50" height="50" relative="1" as="geometry">
            <mxPoint x="460" y="660" as="sourcePoint" />
            <mxPoint x="410" y="710" as="targetPoint" />
          </mxGeometry>
        </mxCell>
        <mxCell id="kcsDUwO9FnMU6XCRbURZ-58" value="" style="endArrow=none;html=1;rounded=0;exitX=0.5;exitY=0;exitDx=0;exitDy=0;entryX=0.5;entryY=1;entryDx=0;entryDy=0;fontSize=24;fontFamily=Times New Roman;" edge="1" parent="1" source="kcsDUwO9FnMU6XCRbURZ-55" target="kcsDUwO9FnMU6XCRbURZ-53">
          <mxGeometry width="50" height="50" relative="1" as="geometry">
            <mxPoint x="460" y="620" as="sourcePoint" />
            <mxPoint x="410" y="670" as="targetPoint" />
          </mxGeometry>
        </mxCell>
        <mxCell id="kcsDUwO9FnMU6XCRbURZ-59" value="&lt;font style=&quot;font-size: 18px;&quot;&gt;&lt;i style=&quot;font-size: 18px;&quot;&gt;f&lt;/i&gt; = 0+3&lt;/font&gt;" style="text;html=1;strokeColor=none;fillColor=none;align=center;verticalAlign=middle;whiteSpace=wrap;rounded=0;fontSize=18;fontFamily=Times New Roman;" vertex="1" parent="1">
          <mxGeometry x="230" y="500" width="60" height="30" as="geometry" />
        </mxCell>
        <mxCell id="kcsDUwO9FnMU6XCRbURZ-60" value="&lt;font style=&quot;font-size: 18px;&quot;&gt;&lt;i style=&quot;font-size: 18px;&quot;&gt;f&lt;/i&gt; = 1+4&lt;/font&gt;" style="text;html=1;strokeColor=none;fillColor=none;align=center;verticalAlign=middle;whiteSpace=wrap;rounded=0;fontSize=18;fontFamily=Times New Roman;" vertex="1" parent="1">
          <mxGeometry x="310" y="390" width="60" height="30" as="geometry" />
        </mxCell>
        <mxCell id="kcsDUwO9FnMU6XCRbURZ-61" value="&lt;font style=&quot;font-size: 18px;&quot;&gt;&lt;i style=&quot;font-size: 18px;&quot;&gt;f&lt;/i&gt; = 2+1&lt;/font&gt;" style="text;html=1;strokeColor=none;fillColor=none;align=center;verticalAlign=middle;whiteSpace=wrap;rounded=0;fontSize=18;fontFamily=Times New Roman;" vertex="1" parent="1">
          <mxGeometry x="370" y="390" width="60" height="30" as="geometry" />
        </mxCell>
        <mxCell id="kcsDUwO9FnMU6XCRbURZ-62" value="&lt;font style=&quot;font-size: 18px;&quot;&gt;&lt;i style=&quot;font-size: 18px;&quot;&gt;f&lt;/i&gt; = 1+2&lt;/font&gt;" style="text;html=1;strokeColor=none;fillColor=none;align=center;verticalAlign=middle;whiteSpace=wrap;rounded=0;fontSize=18;fontFamily=Times New Roman;" vertex="1" parent="1">
          <mxGeometry x="310" y="540" width="60" height="30" as="geometry" />
        </mxCell>
        <mxCell id="kcsDUwO9FnMU6XCRbURZ-63" value="&lt;font style=&quot;font-size: 18px;&quot;&gt;&lt;i style=&quot;font-size: 18px;&quot;&gt;f&lt;/i&gt; = 2+1&lt;/font&gt;" style="text;html=1;strokeColor=none;fillColor=none;align=center;verticalAlign=middle;whiteSpace=wrap;rounded=0;fontSize=18;fontFamily=Times New Roman;" vertex="1" parent="1">
          <mxGeometry x="370" y="540" width="60" height="30" as="geometry" />
        </mxCell>
        <mxCell id="kcsDUwO9FnMU6XCRbURZ-64" value="&lt;font style=&quot;font-size: 18px;&quot;&gt;&lt;i style=&quot;font-size: 18px;&quot;&gt;f&lt;/i&gt; = 3+1&lt;/font&gt;" style="text;html=1;strokeColor=none;fillColor=none;align=center;verticalAlign=middle;whiteSpace=wrap;rounded=0;fontSize=18;fontFamily=Times New Roman;" vertex="1" parent="1">
          <mxGeometry x="430" y="540" width="60" height="30" as="geometry" />
        </mxCell>
        <mxCell id="kcsDUwO9FnMU6XCRbURZ-65" value="&lt;font style=&quot;font-size: 18px;&quot;&gt;&lt;i style=&quot;font-size: 18px;&quot;&gt;f&lt;/i&gt; = 4+1&lt;/font&gt;" style="text;html=1;strokeColor=none;fillColor=none;align=center;verticalAlign=middle;whiteSpace=wrap;rounded=0;fontSize=18;fontFamily=Times New Roman;" vertex="1" parent="1">
          <mxGeometry x="490" y="540" width="60" height="30" as="geometry" />
        </mxCell>
        <mxCell id="kcsDUwO9FnMU6XCRbURZ-66" value="&lt;font style=&quot;font-size: 18px;&quot;&gt;&lt;i style=&quot;font-size: 18px;&quot;&gt;f&lt;/i&gt; = 5+1&lt;/font&gt;" style="text;html=1;strokeColor=none;fillColor=none;align=center;verticalAlign=middle;whiteSpace=wrap;rounded=0;fontSize=18;fontFamily=Times New Roman;" vertex="1" parent="1">
          <mxGeometry x="550" y="540" width="60" height="30" as="geometry" />
        </mxCell>
        <mxCell id="kcsDUwO9FnMU6XCRbURZ-67" value="&lt;font style=&quot;font-size: 18px;&quot;&gt;Goal&lt;/font&gt;" style="text;html=1;strokeColor=none;fillColor=none;align=center;verticalAlign=middle;whiteSpace=wrap;rounded=0;fontSize=18;fontFamily=Times New Roman;" vertex="1" parent="1">
          <mxGeometry x="660" y="505" width="60" height="30" as="geometry" />
        </mxCell>
        <mxCell id="kcsDUwO9FnMU6XCRbURZ-68" value="&lt;div style=&quot;font-size: 18px;&quot;&gt;&lt;font style=&quot;font-size: 18px;&quot;&gt;Goal&lt;/font&gt;&lt;/div&gt;" style="text;html=1;strokeColor=none;fillColor=none;align=center;verticalAlign=middle;whiteSpace=wrap;rounded=0;fontSize=18;fontFamily=Times New Roman;" vertex="1" parent="1">
          <mxGeometry x="480" y="425" width="60" height="30" as="geometry" />
        </mxCell>
        <mxCell id="kcsDUwO9FnMU6XCRbURZ-69" value="&lt;font style=&quot;font-size: 18px;&quot;&gt;&lt;i style=&quot;font-size: 18px;&quot;&gt;f&lt;/i&gt; = 3+0&lt;/font&gt;" style="text;html=1;strokeColor=none;fillColor=none;align=center;verticalAlign=middle;whiteSpace=wrap;rounded=0;fontSize=18;fontFamily=Times New Roman;" vertex="1" parent="1">
          <mxGeometry x="430" y="390" width="60" height="30" as="geometry" />
        </mxCell>
        <mxCell id="kcsDUwO9FnMU6XCRbURZ-70" value="&lt;font style=&quot;font-size: 18px;&quot;&gt;&lt;i style=&quot;font-size: 18px;&quot;&gt;f&lt;/i&gt; = 6+0&lt;/font&gt;" style="text;html=1;strokeColor=none;fillColor=none;align=center;verticalAlign=middle;whiteSpace=wrap;rounded=0;fontSize=18;fontFamily=Times New Roman;" vertex="1" parent="1">
          <mxGeometry x="610" y="540" width="60" height="30" as="geometry" />
        </mxCell>
        <mxCell id="kcsDUwO9FnMU6XCRbURZ-71" value="&lt;font style=&quot;font-size: 18px;&quot;&gt;&lt;i style=&quot;font-size: 18px;&quot;&gt;f&lt;/i&gt; = 0&lt;/font&gt;" style="text;html=1;strokeColor=none;fillColor=none;align=center;verticalAlign=middle;whiteSpace=wrap;rounded=0;fontSize=18;fontFamily=Times New Roman;" vertex="1" parent="1">
          <mxGeometry x="430" y="130" width="60" height="30" as="geometry" />
        </mxCell>
        <mxCell id="kcsDUwO9FnMU6XCRbURZ-72" value="&lt;font style=&quot;font-size: 18px;&quot;&gt;&lt;i style=&quot;font-size: 18px;&quot;&gt;f&lt;/i&gt; = 0&lt;/font&gt;" style="text;html=1;strokeColor=none;fillColor=none;align=center;verticalAlign=middle;whiteSpace=wrap;rounded=0;fontSize=18;fontFamily=Times New Roman;" vertex="1" parent="1">
          <mxGeometry x="610" y="280" width="60" height="30" as="geometry" />
        </mxCell>
      </root>
    </mxGraphModel>
  </diagram>
</mxfile>
